<?xml version="1.0" encoding="utf-8"?>
<!-- Generator: Adobe Illustrator 23.0.4, SVG Export Plug-In . SVG Version: 6.00 Build 0)  -->
<svg version="1.1" id="Layer_1" xmlns="http://www.w3.org/2000/svg" xmlns:xlink="http://www.w3.org/1999/xlink" x="0px" y="0px"
	 viewBox="0 0 181.42 181.42" style="enable-background:new 0 0 181.42 181.42;" xml:space="preserve">
<path d="M181.42,181.42H0V0h181.42V181.42z M126.38,31.09l-12.13,46.08c-4.62-17.57-8.86-33.46-9.57-36.07
	c-1.85-6.75-6.35-10-12.98-10c-7.18,0-12.37-0.01-12.37-0.01c-0.04,0-0.06,0-0.06,0L67.13,77.2L55,31.09l-27.22,3.16
	c0,0,14.95,56.92,17.68,67.25c1.75,6.61,5.25,11.08,11.93,12.89c6.91,1.88,21.14,6.11,21.14,6.11l12.16-46.24
	c3.69,14.01,6.51,24.31,7.61,28.36c1.65,6.05,5.62,9.9,12.54,11.93c9.35,2.75,20.07,5.95,20.07,5.95l22.73-86.43L126.38,31.09z
	 M104.95,140.47c-4.3,0-6.84,2.16-7.85,5.07c-0.85-3.53-4.07-5.07-7.47-5.07c-4.28,0-7.53,2.54-8.26,6.5v-12.01h-5.76v21.6h5.76
	v-5.92c0.72,4.17,3.88,6.32,8.08,6.32c3.6,0,6.57-1.79,7.67-5.05c1.02,2.89,3.55,5.05,7.83,5.05c5.76,0,8.35-3.9,8.35-8.26
	C113.3,144.34,110.7,140.47,104.95,140.47z M91.96,150.35c-0.15,1.28-0.94,2.33-2.45,2.33c-1.86,0-2.54-1.45-2.54-3.96
	c0-1.91,0.47-3.99,2.66-3.99c1.36,0,2.18,0.91,2.18,2.48h4.88c-0.07,0.48-0.11,0.98-0.11,1.48c0,0.56,0.04,1.12,0.13,1.66H91.96z
	 M104.95,152.69c-2.27,0-2.6-2.3-2.6-3.99c0-1.69,0.33-3.96,2.6-3.96c2.27,0,2.6,2.27,2.6,3.96
	C107.54,150.39,107.21,152.69,104.95,152.69z M146.9,153.2c-1.89,0-2.92-1.3-3.07-3.18h11.31c-0.03-6.08-2.66-9.56-8.56-9.56
	c-4.11,0-7.03,2.52-7.94,5.97v-0.67c0-2.54-1.33-5.3-5.23-5.3c-2.27,0-3.66,0.81-4.46,1.6c-0.08,0.09-0.17,0.19-0.23,0.27
	c-0.29,0.31-0.45,0.52-0.56,0.64c-0.73-1.63-2.51-2.51-4.13-2.51c-2.12,0-3.84,0.67-5.05,2.51h-0.09v-2.12h-5.58v7.83v7.87h5.76
	v-8.5c0-1.66,0.5-2.9,2.04-2.9c1.86,0,1.97,1.42,1.97,2.9v8.5h5.79v-8.5c0-1.66,0.5-2.9,2.03-2.9c1.83,0,1.98,1.42,1.98,2.9v8.5
	h5.76v-5.37c0.95,3.71,4.12,5.77,8.2,5.77c3.55,0,6.74-1.54,7.95-4.87h-5.38C148.91,152.84,147.84,153.2,146.9,153.2z
	 M146.84,144.22c1.68,0,2.77,1.21,2.77,2.79h-5.75C144.15,145.18,145.19,144.22,146.84,144.22z M68.16,145.89
	c-1.05-3.49-3.62-5.42-8.02-5.42c-3.39,0-5.98,1.72-7.29,4.26l1.2-3.87h-6.03l-2.15,9.77h-0.12l-2.07-9.77h-5.43l-1.95,9.77h-0.09
	l-2.3-9.77h-6.02l4.78,15.7h5.94l2.3-9.71h0.09l2.24,9.71h5.94l2.82-9.07c-0.06,0.41-0.1,0.84-0.1,1.27c0,5.23,3.61,8.2,8.51,8.2
	c3.37,0,6.41-1.4,7.75-4.4v4h5.76v-21.6h-5.76V145.89z M60.4,144.22c1.69,0,2.78,1.21,2.78,2.79h-5.76
	C57.72,145.18,58.75,144.22,60.4,144.22z M62.97,152.08c-0.5,0.76-1.56,1.12-2.51,1.12c-1.88,0-2.91-1.3-3.07-3.18h10.76v2.06H62.97
	z"/>
</svg>
